<?xml version="1.0"?>
<svg width="750" height="431" xmlns="http://www.w3.org/2000/svg" xmlns:svg="http://www.w3.org/2000/svg" preserveAspectRatio="xMidYMid meet" version="1.0">
 <g class="layer">
  <title>Layer 1</title>
  <g fill="#000000" id="svg_1" transform="translate(0 431) matrix(0.1 0 0 -0.1 0 0)">
   <path d="m845,4301c-72,-18 -131,-69 -151,-131c-9,-28 -7,-3865 2,-3948l6,-52l1199,0l1199,0l0,-23l0,-22l-1472,2c-810,1 -1485,2 -1500,2c-17,1 -28,7 -28,15c0,8 -15,16 -37,20c-58,9 -63,8 -63,-19c0,-21 8,-27 78,-49c98,-31 256,-62 397,-78c164,-19 6390,-19 6550,0c146,17 287,45 391,77c77,24 84,28 84,52c0,24 -2,25 -37,19c-21,-3 -46,-6 -55,-6c-10,0 -18,-6 -18,-14c0,-8 -14,-15 -37,-18c-21,-2 -695,-4 -1498,-3l-1460,0l-3,23l-3,22l1200,0l1201,0l5,23c3,12 7,913 8,2003l2,1981l-28,40c-15,22 -46,50 -70,64l-42,24l-2895,2c-1592,0 -2908,-2 -2925,-6zm5815,-2061l0,-1820l-2912,2l-2913,3l-3,1818l-2,1817l2915,0l2915,0l0,-1820zm-2983,-2017c-3,-10 -5,-2 -5,17c0,19 2,27 5,18c2,-10 2,-26 0,-35zm38,38c3,-5 2,-12 -3,-15c-5,-3 -9,1 -9,9c0,17 3,19 12,6zm-108,-43c-3,-7 -5,-2 -5,12c0,14 2,19 5,13c2,-7 2,-19 0,-25zm210,0c-3,-7 -5,-2 -5,12c0,14 2,19 5,13c2,-7 2,-19 0,-25zm39,14c0,-10 -6,-19 -13,-19c-17,0 -17,24 0,30c6,3 12,6 12,6c1,1 1,-7 1,-17zm-89,-14c-3,-8 -6,-5 -6,6c-1,11 2,17 5,13c3,-3 4,-12 1,-19zm134,-1c-10,-9 -11,-8 -5,6c3,10 9,15 12,12c3,-3 0,-11 -7,-18zm-366,3c3,-5 1,-10 -4,-10c-6,0 -11,5 -11,10c0,6 2,10 4,10c3,0 8,-4 11,-10zm185,0c0,-5 -5,-10 -11,-10c-5,0 -7,5 -4,10c3,6 8,10 11,10c2,0 4,-4 4,-10zm595,-58c6,-4 11,-17 12,-29l3,-23l-580,0l-580,0l0,24c0,13 6,27 13,29c20,8 1121,7 1132,-1z" id="svg_2"/>
  </g>
  <path d="m344.86,398.71c0.29,0.81 0.75,1.33 1.5,1.99c0.69,0.61 1.24,1.02 1.84,1.46c0.63,0.47 1.67,1.22 2.4,1.74c0.76,0.55 1.16,0.83 1.98,1.38c1.28,0.87 1.73,1.14 2.64,1.7c0.45,0.28 1.33,0.81 1.76,1.05c1.17,0.68 1.84,1.04 2.67,1.48c0.68,0.36 1.57,0.88 2.45,1.33c0.8,0.41 1.64,0.38 2.49,0.58c0.88,0.21 1.61,0.62 2.65,0.7c0.74,0.06 1.75,0 2.42,0c1.05,0 1.88,0 2.97,0c0.64,0 1.31,-0.01 2.66,0.05c0.64,0.03 1.58,0.1 2.2,0.14c1.33,0.08 2.05,0.09 2.76,0.09c0.99,0.01 2.02,0.01 2.9,0.01c0.96,0 1.78,-0.14 2.5,-0.23c1.09,-0.13 1.79,-0.17 2.6,-0.22c0.92,-0.05 1.95,-0.08 3.08,-0.1c0.59,-0.01 1.18,-0.02 2.34,-0.03c0.55,-0.01 2,-0.02 2.73,-0.07c0.79,-0.06 1.87,-0.3 2.58,-0.48c1.01,-0.26 1.79,-0.49 2.62,-0.6c0.96,-0.13 2.34,-0.37 1.98,-0.83c-0.5,-0.63 -1.76,-0.26 -2.62,-0.43c-0.72,-0.15 -1.58,-0.37 -2.2,-0.5c-1.19,-0.24 -2.05,-0.36 -2.91,-0.47c-0.93,-0.12 -1.59,-0.23 -2.62,-0.36c-0.68,-0.09 -1.93,-0.21 -2.75,-0.23c-0.7,-0.02 -1.74,-0.01 -2.69,-0.01c-0.92,0 -1.88,0 -2.68,0c-1.01,0 -1.74,0 -2.55,0c-1.13,0 -1.98,0 -2.52,0c-1.18,0 -1.99,0 -2.93,0c-0.12,0 0.73,-0.07 1.6,-0.23c0.8,-0.15 1.73,-0.28 2.65,-0.33c0.8,-0.04 1.8,-0.02 2.63,-0.02c0.91,0 1.83,0 2.67,0c0.68,0 1.88,0 2.62,0c1.11,0 2.7,0.66 2.66,-0.2c-0.05,-0.93 -1.73,-0.24 -2.45,-0.33c-0.98,-0.13 -1.79,-0.22 -2.7,-0.34c-0.48,-0.07 -1.5,-0.21 -2.54,-0.4c-1.06,-0.2 -1.59,-0.33 -2.65,-0.57c-0.52,-0.12 -1.55,-0.36 -2.54,-0.53c-0.95,-0.17 -1.85,-0.27 -2.7,-0.34c-0.8,-0.06 -1.89,-0.11 -2.85,-0.13c-0.84,-0.02 -1.75,-0.01 -2.63,-0.01c-0.94,0 -1.73,-0.05 -2.71,0.01c-0.89,0.05 -1.75,0.26 -1.52,0.28c0.63,0.05 1.46,0 2.46,0c0.74,0 1.55,0 2.43,0c0.96,0 2,0 3.12,0c0.58,0 1.17,0 2.34,0c0.57,0 2.16,0 2.63,0c1.22,0 1.9,-0.02 3.01,0.05c0.86,0.05 1.88,0.26 1.59,0.76c-0.44,0.75 0.13,0.62 0.93,0.62c0.69,0 1.48,0 2.82,0c0.96,0 1.45,0 2.42,0c0.92,0 2.1,0 2.71,0c0.96,0 1.32,0.45 0.57,0.7c-0.82,0.28 -1.66,0.35 -2.64,0.5c-0.53,0.08 -1.65,0.24 -2.22,0.31c-1.13,0.15 -2.22,0.29 -2.73,0.35c-0.95,0.12 -1.79,0.22 -3.04,0.35c-0.74,0.08 0.11,0.07 0.92,0.07c0.77,0 1.98,0 2.64,0c1,0 1.63,0 2.71,0c0.92,0 1.15,0 0.24,0c-0.68,0 -1.47,0 -2.31,0c-1.29,0 -2.11,0 -2.86,0c-0.95,0 -2.31,-0.26 -1.7,-0.72c0.7,-0.53 1.95,-0.55 2,-0.4c0.27,0.86 -0.09,0.55 0.57,0.55c0.84,0 1.84,0 2.58,0c0.78,0 1.59,0 2.4,0c1.21,0 2.34,0 3.01,0c1.08,0 2.06,0.11 1.6,0.43c-0.57,0.41 -1.55,0.55 -2.25,0.72c-1.13,0.29 -1.93,0.42 -2.73,0.55c-0.77,0.13 -1.84,0.29 -2.73,0.47c-0.71,0.14 -1.57,0.46 -0.68,0.31c0.84,-0.14 1.76,-0.4 2.47,-0.46c0.98,-0.07 0.31,-0.23 -0.7,-0.28c-0.85,-0.04 -1.47,-0.02 -2.74,-0.02c-0.62,0 -1.55,0 -2.21,0c-1.09,0 -1.88,0 -2.68,0c-1.12,0 -2.69,0.7 -3.04,0c-0.14,-0.28 1.03,-0.54 1.88,-0.57c0.71,-0.03 1.68,-0.2 2.56,-0.26c0.86,-0.06 1.94,-0.02 2.57,-0.02c1,0 1.68,0 2.97,0c0.58,0 2.57,1.02 2.57,0c0,-0.78 -1.66,0.05 -2.59,0c-0.48,-0.02 0.25,-0.24 1.28,-0.5c0.54,-0.14 1.47,-0.37 2.53,-0.5c0.76,-0.09 1.55,-0.12 2.33,-0.13c0.76,-0.01 2.13,-0.01 2.97,-0.01c0.99,0 1.14,0 0.27,0c-0.81,0 -1.77,0 -2.6,0c-0.96,0 -1.84,0.12 -2.61,0.46c-0.72,0.31 -1.73,0.41 -2.14,0.47c-0.96,0.14 -2.12,0.27 -2.77,0.34c-0.7,0.08 -1.46,0.15 -2.25,0.22c-0.84,0.08 -1.73,0.15 -2.65,0.21c-0.97,0.06 -3.01,0.17 -4.08,0.2c-1.1,0.04 -2.22,0.06 -3.34,0.07c-1.13,0.02 -2.25,0.02 -3.37,0.03c-1.09,0 -3.17,0 -4.15,0c-0.93,0 -1.81,0 -2.63,0c-0.77,0 -1.48,0 -2.14,0c-0.59,0 -1.58,0 -1.98,0c-0.33,0 -0.61,0 -0.83,0c-0.43,0 -0.11,-0.3 0.68,-0.61c0.72,-0.28 1.61,-0.57 2.12,-0.72c1.14,-0.31 1.78,-0.45 3.16,-0.69c0.74,-0.13 1.51,-0.24 2.31,-0.33c0.82,-0.1 1.66,-0.19 3.38,-0.31c0.87,-0.06 1.75,-0.1 2.63,-0.13c0.87,-0.03 1.72,-0.04 2.56,-0.05c0.81,-0.01 1.6,-0.01 3.05,-0.01c0.66,0 1.28,0 1.85,0c1,0 2.8,1 2.8,0c0,-0.33 -1.09,0 -2.12,0c-0.76,0 -1.68,0 -2.47,0c-0.99,0 -1.95,-0.14 -2.68,-0.28c-0.91,-0.18 -1.83,0 -2.61,0c-0.95,0 -1.96,-0.12 -1.61,-0.34c0.66,-0.42 1.75,-0.32 2.7,-0.46c0.66,-0.1 1.86,-0.27 2.51,-0.4c0.97,-0.2 0.41,-0.49 -0.25,-0.5c-1.26,-0.01 -2.05,0 -2.93,0c-0.46,0 -1.4,0 -2.8,0c-0.45,0 -1.31,0 -2.45,0c-0.64,0 -1.83,0 -1.74,0c0.6,0 1.5,0.02 2.76,0.1c0.51,0.03 1.64,0.11 2.25,0.16c0.63,0.05 1.28,0.1 2.61,0.23c1.33,0.13 1.98,0.21 2.62,0.28c1.22,0.15 1.79,0.23 2.85,0.39c0.48,0.07 1.71,0.26 2.56,0.48c1.06,0.27 0.42,0.49 -0.2,0.58c-1.24,0.17 -2.05,0.26 -2.5,0.3c-0.96,0.1 -2,0.18 -3.1,0.24c-0.56,0.03 -1.69,0.06 -2.26,0.07c-1.11,0.02 -1.65,0.02 -3.17,0.02c-0.89,0 -1.66,0.01 -2.31,0c-1.12,-0.01 -0.24,-0.26 0.47,-0.46c0.85,-0.24 1.82,-0.21 2.78,-0.64c0.44,-0.19 -0.39,-0.33 -1.47,-0.33c-0.76,0 -1.63,0 -2.09,0c-0.95,0 -2.34,0 -3.18,0c-0.75,0 -2.57,1.21 -2.62,0c-0.02,-0.65 1.33,-0.08 2.23,-0.12c0.52,-0.02 1.69,-0.07 2.34,-0.08c1.41,-0.04 2.17,-0.05 2.95,-0.06c0.79,-0.01 1.58,-0.01 2.37,-0.02c0.76,0 1.48,-0.01 3.33,-0.01c0.88,0 2.3,0.81 2.3,0c0,-0.87 -1.83,-0.01 -2.64,0c-0.89,0.01 -1.91,0.07 -2.72,0.14c-0.72,0.06 -1.3,0.16 -0.35,0.08c0.77,-0.07 1.43,-0.15 2.56,-0.21c0.84,-0.04 2.47,0.32 2.4,-0.32c-0.09,-0.8 -1.64,-0.15 -2.34,-0.18c-1.21,-0.06 -2.09,-0.07 -2.97,-0.08c-0.83,-0.01 -1.86,-0.02 -2.69,-0.01c-0.84,0.01 -1.76,0.33 -2.41,0.59c-0.75,0.3 -1.83,0.71 -2.63,0.96c-0.72,0.23 -1.98,0.51 -1.87,0.73c0.37,0.75 1.59,0.01 2.74,-0.09c0.94,-0.08 1.64,-0.2 2.45,-0.27c0.46,-0.04 2.1,-0.13 2.73,-0.15c0.66,-0.02 1.33,-0.03 2.64,-0.04c0.62,-0.01 1.2,-0.01 2.85,-0.01c0.33,0 -0.51,-0.05 -1.47,0.06c-0.83,0.1 -1.49,0.2 -2.49,0.32c-0.78,0.09 -1.39,0.21 -2.41,0.34c-1.1,0.14 -1.85,0.21 -2.59,0.27c-0.69,0.06 -2.87,-0.68 -2.86,0.15c0,0.28 1.09,0 2.11,0c0.7,0 1.75,-0.01 2.65,0c0.63,0.01 1.56,0.01 2.7,0.16c0.72,0.1 1.8,0.39 1.11,0.41c-0.74,0.02 -2.43,0.75 -2.55,-0.06c-0.15,-0.99 1.5,-0.53 2.18,-0.7c0.75,-0.18 2.23,-0.49 2.87,-0.57c0.79,-0.09 2.17,-0.01 1.87,0.49c-0.38,0.63 -1.89,0.76 -2.33,0.83c-1.01,0.17 -1.57,0.22 -2.15,0.28c-1.2,0.12 -1.8,0.17 -3.54,0.3c-0.54,0.04 -1.52,0.11 -2.4,0.16c-0.74,0.05 -1.96,-0.05 -1.94,0.13c0.07,0.99 1.76,0 2.66,-0.05c0.77,-0.04 1.62,-0.13 2.9,-0.19c0.7,-0.03 1.41,-0.04 2.1,-0.04c1.35,-0.01 1.91,0.02 1,0c-0.91,-0.02 -1.61,-0.29 -2.55,-0.29c-0.59,0 -1.46,0 -2.75,0c-0.54,0 -1.12,0 -2.4,0c-0.69,0 -1.4,0 -2.14,0c-1.5,0 -2.26,0 -3.02,0c-0.75,0 -1.5,0 -2.23,0c-1.42,0 -2.11,0 -3.39,0c-0.6,0 -1.7,0 -2.66,0c-0.82,0 -2.03,0.62 -2.63,0c-0.21,-0.22 0.92,-0.59 1.58,-0.77c0.73,-0.2 1.46,-0.38 2.71,-0.73c0.88,-0.25 2.69,0.36 2.66,-0.51c-0.02,-0.68 -2.45,-0.34 -2.31,0.49c0.1,0.56 1.67,-0.19 2.41,0.32c0.32,0.22 -0.47,0.59 -1.47,1c-0.54,0.22 -1.37,0.59 -2.36,0.94c-0.84,0.29 -2.38,0.73 -2.41,0.09c-0.03,-0.74 1.41,-0.77 2.38,-1.03c1.04,-0.28 1.6,-0.31 2.48,-0.37c0.64,-0.04 2.11,-0.13 2.93,-0.21c0.42,-0.04 1.24,-0.11 2.64,-0.32c0.69,-0.1 1.29,-0.24 0.57,0.05c-0.85,0.34 -1.71,0.67 -2.33,0.89c-0.9,0.33 -2.57,1.68 -2.86,0.73c-0.09,-0.31 0.88,-0.32 1.77,-0.54c0.79,-0.2 1.75,-0.41 2.89,-0.65c0.61,-0.12 1.24,-0.25 1.87,-0.36c1.21,-0.23 1.77,-0.34 3.15,-0.56c0.83,-0.13 1.03,-0.2 0.26,-0.16c-1.13,0.05 -1.67,0.15 -2.57,0.28c-0.67,0.1 -1.8,0.24 -2.62,0.31c-0.85,0.08 -1.68,0.13 -2.43,0.17c-1.33,0.07 -1.65,-0.14 -0.82,-0.36c0.6,-0.16 -0.32,-0.12 -1.1,-0.12c-0.87,0 -1.79,-0.01 -2.44,0.02c-1.05,0.04 -2.22,0.17 -3.07,0.28c-0.42,0.06 -1.24,0.21 -2.61,0.41c-0.89,0.13 -0.52,0 0.11,-0.16c0.81,-0.21 2.03,-0.51 2.68,-0.64c0.71,-0.14 1.57,-0.27 2.08,-0.32c1.94,-0.23 2.76,-0.28 3.64,-0.35c0.94,-0.08 1.92,-0.15 2.91,-0.22c0.99,-0.07 1.95,-0.14 2.88,-0.2c1.65,-0.1 2.35,-0.14 2.96,-0.17c0.53,-0.03 0.98,-0.05 1.37,-0.06c0.87,-0.02 1.9,-0.01 1.82,0c-0.84,0.13 -1.72,0.24 -2.74,0.46c-0.69,0.15 -1.7,0.35 -2.55,0.45c-0.85,0.1 -1.87,0.19 -2.64,0.21c-0.19,0 0.75,-0.08 1.41,-0.13c0.81,-0.07 1.81,-0.11 2.94,-0.13c0.76,-0.01 1.55,-0.49 2.64,-0.01c0.31,0.14 -0.67,0.54 -1.46,0.7c-1.05,0.22 -1.92,0.35 -2.4,0.43c-1.04,0.16 -1.6,0.24 -2.18,0.31c-1.85,0.24 -2.5,0.3 -3.16,0.36c-0.66,0.07 -1.99,0.18 -2.65,0.23c-0.64,0.05 -1.27,0.1 -3.03,0.18c-0.53,0.02 -1.49,0.05 -2.33,0.06c-0.7,0.01 -2.52,0.07 -2.32,-0.56c0.24,-0.78 1.57,-0.55 2.55,-0.74c0.78,-0.15 1.61,-0.12 2.66,-0.27c0.93,-0.13 1.67,-0.31 2.08,-0.39c0.96,-0.18 2.11,-0.37 2.76,-0.47c0.71,-0.11 1.46,-0.21 2.25,-0.32c0.82,-0.11 1.67,-0.22 2.54,-0.32c0.88,-0.11 2.65,-0.31 3.54,-0.41c0.88,-0.1 1.75,-0.19 2.61,-0.27c0.86,-0.08 1.71,-0.16 2.56,-0.23c0.84,-0.07 2.51,-0.17 3.34,-0.2c0.82,-0.03 1.62,-0.06 2.4,-0.07c0.76,-0.01 1.5,-0.02 2.21,-0.01c0.67,0 1.9,0.02 2.96,0.06c0.46,0.02 1.65,-0.04 2.66,0.3c0.71,0.24 0.58,1.24 -0.34,1.51c-0.66,0.2 -1.37,0.1 -2.63,0.1c-0.75,0 -1.52,0 -2.26,0c-1.25,0 -2.49,0.31 -2.49,-0.1c0,-0.66 1.39,-0.31 2.77,-0.41c0.41,-0.03 1.28,-0.05 2.19,-0.06c0.92,-0.01 2.22,-0.01 3,-0.01c0.69,0 2.16,-0.65 2.18,0c0.02,0.78 -1.7,0.17 -2.32,0.25c-0.75,0.1 -1.65,0.2 -2.73,0.28c-1.26,0.09 -1.94,0.12 -2.65,0.15c-0.72,0.04 -1.45,0.07 -2.19,0.11c-0.72,0.04 -2.12,0.11 -3.4,0.21c-0.59,0.04 -1.65,0.14 -2.55,0.23c-1.03,0.1 -1.88,0.22 -1.05,0.19c0.94,-0.03 1.61,-0.12 2.41,-0.17c1,-0.07 1.79,-0.08 2.67,-0.09c0.93,-0.01 1.41,-0.01 2.85,-0.01c0.92,0 1.81,0 2.65,0c0.79,0 1.89,0 2.54,0c0.88,0 2.06,0 2.87,0c0.03,0 0.59,0 1.58,0c0.7,0 1.43,0 2.64,0c0.69,0 2.54,-0.91 2.63,0c0.02,0.26 -1.03,0.12 -1.79,0.22c-0.89,0.11 -1.88,0.26 -2.61,0.35c-0.79,0.1 -2.08,0.2 -2.55,0.22c-0.96,0.05 -1.94,0.06 -2.42,0.06c-0.93,0.01 -2.17,0.01 -3.15,0.01c-0.73,0 -1.08,0 -0.28,0c0.93,0 1.81,0 2.31,0c1.11,0 1.71,0 2.33,0c1.92,0 2.56,0 3.19,0c0.63,0 1.85,0.01 2.44,0.03c1.12,0.03 2.15,0.09 3.06,0.21c0.8,0.1 2.69,-0.43 2.7,0.54c0,0.38 -0.73,-0.17 -0.73,0.36c0,0.88 -1.79,0.01 -2.17,0.02c-1.47,0.03 -2.07,0.05 -2.72,0.06c-1.42,0.04 -2.18,0.06 -2.96,0.08c-0.8,0.02 -1.6,0.04 -3.22,0.07c-0.79,0.01 -1.57,0.02 -2.33,0.03c-0.73,0.01 -1.43,0.01 -2.1,0.01c-1.21,0 -2.24,0 -3.04,0c-0.87,0 -1.91,0 -2.79,0c-0.84,0 -1.71,0 -2.42,0c-0.83,0 -1.8,0 -2.88,0c-0.58,0 -1.8,0 -2.42,0c-0.62,0 -1.24,0 -3.02,0c-0.55,0 -1.58,0 -2.5,0c-0.78,0 -2.44,0.62 -2.63,-0.13c-0.15,-0.62 1.41,-0.73 2.4,-1.02c0.71,-0.2 1.73,-0.48 2.57,-0.71c0.83,-0.23 1.83,-0.57 1.54,-0.72c-0.14,-0.08 0.68,-0.09 1.49,-0.2c0.96,-0.13 0.94,-0.16 -0.05,0.06c-0.79,0.17 -1.41,0.27 -2.44,0.43c-0.74,0.12 -1.53,0.23 -2.41,0.34c-0.99,0.12 -2.11,0.23 -2.73,0.29c-1.31,0.12 -1.99,0.17 -2.66,0.22c-0.66,0.05 -1.29,0.1 -2.92,0.2c-0.78,0.05 -2.26,0.64 -2.27,0.1c-0.01,-0.87 1.5,-0.03 2.57,-0.25c0.65,-0.14 1.39,-0.35 2.26,-0.55c1.54,-0.36 2.13,-0.46 2.76,-0.57c0.65,-0.11 2.02,-0.33 2.72,-0.43c0.7,-0.1 1.41,-0.2 2.78,-0.35c0.66,-0.07 1.91,-0.18 2.5,-0.22c1.07,-0.08 1.55,-0.11 2.74,-0.16c0.96,-0.04 0.81,-0.05 -0.12,-0.05c-0.74,0 -1.67,0 -2.45,0c-1.23,0 -1.83,0 -2.76,0c-1.09,0 -2,0.2 -2.01,-0.02c-0.08,-1.04 1.6,-0.39 2.28,-0.6c0.76,-0.23 1.55,-0.49 2.76,-0.83c0.77,-0.21 1.49,-0.41 2.47,-0.6c1.02,-0.2 1.94,-0.22 1.44,-0.08c-0.69,0.19 -1.38,0.3 -2.84,0.55c-0.62,0.11 -1.3,0.22 -2.01,0.33c-0.75,0.12 -1.51,0.24 -2.27,0.35c-0.75,0.11 -2.76,0.41 -3.31,0.49c-0.91,0.13 -2.37,1.46 -2.73,0.37c-0.25,-0.76 1.43,-0.71 2,-0.95c1.19,-0.49 1.78,-0.69 2.67,-0.95c0.59,-0.17 1.79,-0.46 2.45,-0.58c0.72,-0.14 1.54,-0.27 3.03,-0.47c0.56,-0.08 1.15,-0.15 2.34,-0.3c0.59,-0.07 1.71,-0.21 2.7,-0.3c1.1,-0.1 2.33,-0.99 2.8,-0.14c0.09,0.17 -0.93,0.43 -1.94,0.69c-0.61,0.16 -1.59,0.38 -2.26,0.49c-1.25,0.2 -2.73,1.14 -2.98,0.24c-0.04,-0.16 0.83,-0.18 1.96,-0.44c0.8,-0.19 1.37,-0.38 2.66,-0.56c0.7,-0.1 1.42,-0.12 2.47,-0.14c0.91,-0.01 2.56,-0.7 2.66,0.16c0.09,0.84 -1.63,0.61 -2.32,0.78c-0.75,0.19 -1.9,0.41 -2.68,0.52c-0.79,0.1 -1.62,0.17 -2.99,0.3c-0.5,0.04 -1.51,0.14 -2.49,0.23c-0.45,0.04 -1.75,0.24 -1.39,0.26c1.16,0.05 1.86,-0.17 2.65,-0.27c0.89,-0.12 1.37,-0.2 2.99,-0.45c0.6,-0.09 1.21,-0.19 1.84,-0.28c1.27,-0.19 1.9,-0.28 2.51,-0.35c1.71,-0.2 2.22,-0.24 3.14,-0.28c0.79,-0.04 2.52,-0.63 2.52,-0.04c0.01,0.86 -1.77,0.12 -2.58,0.3c-0.7,0.15 -1.73,0.4 -2.6,0.55c-0.65,0.11 -1.79,0.21 -2.67,0.25c-0.94,0.04 -1.42,0.04 -2.39,0.05c-1.4,0.01 -2.24,0 -3,0c-0.66,0 -1.81,0 -1.81,0c0,0.66 1.84,0 2.47,0c0.8,0 1.8,0 3.08,0c0.75,0 1.56,0 2.42,0c0.88,0 1.77,0 2.66,0.01c0.85,0.01 1.66,0.01 3.07,0.04c0.57,0.01 1.49,-0.18 2.2,0.12c0.27,0.11 -0.63,0.46 -1.5,0.71c-0.69,0.21 -1.9,0.51 -2.34,0.6c-0.9,0.2 -1.81,0.36 -2.67,0.52c-1.13,0.2 -1.96,0.34 -2.76,0.49l-0.21,-0.1l-0.83,-0.35" fill="none" id="svg_3" stroke="#000000"/>
  <rect fill="#000000" height="11" id="svg_4" stroke="#000000" width="383" x="71" y="411"/>
  <rect fill="#000000" height="3.5" id="svg_6" stroke="#000000" width="66" x="7" y="414.5"/>
  <rect fill="#000000" height="9.5" id="svg_7" stroke="#000000" width="228.5" x="450" y="409.5"/>
  <rect fill="#000000" height="2" id="svg_9" stroke="#000000" width="61" x="678" y="416"/>
  <rect fill="#000000" height="7.5" id="svg_10" stroke="#000000" width="4.5" x="70" y="408"/>
  <rect fill="#000000" height="6.25" id="svg_11" stroke="#000000" width="6.25" x="672.75" y="410.5"/>
 </g>
</svg>