<?xml version="1.0"?>
<svg width="358" height="740" xmlns="http://www.w3.org/2000/svg" xmlns:svg="http://www.w3.org/2000/svg" preserveAspectRatio="xMidYMid meet" version="1.0">
 <g class="layer">
  <title>Layer 1</title>
  <g fill="#000000" id="svg_1" transform="matrix(0.1 0 0 -0.1 0 0)">
   <path d="m445.78,-21.52c-212,-39 -370,-193 -413,-405c-11,-53 -13,-649 -13,-3290c0,-3052 1,-3229 18,-3294c47,-185 173,-315 362,-373c57,-17 127,-18 1395,-18c1268,0 1338,1 1395,18c188,58 309,181 362,367c17,62 18,193 18,3310c0,3117 -1,3248 -18,3310c-58,203 -206,338 -412,375c-115,21 -2581,20 -2694,0zm701,-122c9,-10 18,-44 20,-76c4,-44 11,-66 35,-95c59,-74 39,-72 594,-72l495,0l45,29c53,33 78,79 86,157c3,29 12,59 19,65c9,7 115,9 341,7c307,-4 332,-5 395,-26c113,-38 193,-114 240,-229l23,-58l3,-3235c3,-3618 9,-3323 -68,-3438c-45,-67 -107,-115 -188,-145l-57,-22l-1308,-3c-1148,-2 -1315,0 -1374,13c-174,40 -272,150 -303,337c-14,88 -14,6368 1,6458c22,140 98,247 212,301c90,42 139,47 473,48c275,1 302,-1 316,-16z" id="svg_2"/>
  </g>
 </g>
</svg>