<?xml version="1.0"?>
<svg width="750" height="485" xmlns="http://www.w3.org/2000/svg" xmlns:svg="http://www.w3.org/2000/svg" preserveAspectRatio="xMidYMid meet" version="1.0">
 <g class="layer">
  <title>Layer 1</title>
  <g fill="#000000" id="svg_1" transform="matrix(0.1 0 0 -0.1 0 0)">
   <path d="m1863.01,-1.02c-63,-3 -444,-6 -847,-6c-402,0 -736,-3 -742,-7c-7,-3 -25,-3 -42,0c-24,5 -30,4 -24,-5c5,-9 1,-10 -15,-5c-15,5 -20,3 -16,-3c3,-6 -3,-14 -15,-17c-12,-4 -42,-26 -67,-49c-36,-33 -42,-35 -27,-13c9,15 36,39 59,52c22,14 36,25 30,25c-13,0 -89,-54 -99,-71c-5,-6 -9,-21 -10,-33c-4,-36 -5,-37 -14,-32c-13,9 -21,-20 -16,-57c3,-19 2,-25 -2,-15c-5,9 -9,-979 -9,-2197c-1,-1218 2,-2213 6,-2210c4,2 5,-7 2,-22c-3,-18 -1,-24 6,-19c8,4 10,2 6,-8c-7,-18 14,-59 26,-51c5,3 12,0 16,-6c4,-8 3,-9 -4,-5c-23,14 -12,-10 15,-36c37,-34 91,-61 109,-54c8,3 13,2 10,-3c-3,-5 11,-12 32,-16c53,-10 7013,-2 6999,8c-7,5 5,6 26,2c29,-5 37,-3 32,5c-5,9 -1,10 15,5c14,-4 20,-3 16,3c-7,12 22,25 36,15c7,-4 8,-1 3,7c-6,10 -4,12 8,7c17,-6 97,72 97,95c0,7 -8,0 -19,-17c-10,-16 -31,-41 -47,-55c-21,-19 -20,-15 8,16c20,23 39,51 43,63c3,12 10,19 15,16c13,-8 21,25 15,64c-4,27 -3,31 4,16c6,-13 9,789 8,2185l-2,2205l-23,57c-26,65 -104,143 -134,135c-10,-3 -16,-1 -13,3c3,5 -18,13 -47,19c-60,12 -5212,21 -5408,9zm5540,-83c13,-14 21,-25 18,-25c-2,0 -15,11 -28,25c-13,14 -21,25 -18,25c2,0 15,-11 28,-25zm-180,-185c20,-20 20,-33 20,-2167c0,-1983 -1,-2148 -17,-2165c-16,-17 -137,-18 -3479,-18l-3463,0l-20,26l-21,27l0,2132l0,2132l21,27l20,26l3460,0c3446,0 3459,0 3479,-20zm-7099,-4537c13,-16 12,-17 -3,-4c-17,13 -22,21 -14,21c2,0 10,-8 17,-17z" id="svg_2"/>
  </g>
  <path d="m20.63,1.89c-0.7,0.17 -1.64,0.59 -0.91,0.7c0.88,0.13 0.91,0.21 0.11,0.35c-0.8,0.14 -1.65,0.2 -2.35,0.53c-0.71,0.33 -0.82,0.59 -0.4,0c0.15,-0.21 -0.78,0.02 -0.45,-0.05c0.87,-0.19 -0.07,-0.36 -0.69,0.05c-0.6,0.4 -1.14,0.96 -1.78,1.38c-0.71,0.47 -1.53,0.72 -2.21,1.18c-0.63,0.43 -1.27,0.9 -1.83,1.43c-0.56,0.53 -1.16,1.01 -1.71,1.65c-0.49,0.57 -1.07,1.2 -1.42,1.83c-0.35,0.65 -1.25,0.81 -1.58,1.64c-0.12,0.31 0.7,-0.12 1.23,-0.64c0.61,-0.6 1.34,-1.09 1.9,-1.75c0.55,-0.64 0.93,-1.44 1.54,-2c0.55,-0.51 1.28,-0.85 2.01,-1.16c0.81,-0.34 1.5,-0.94 2.2,-1.42c0.73,-0.5 2.54,-0.25 2.3,-0.99c-0.15,-0.46 -1.29,0.29 -2.18,0.58c-0.72,0.24 -1.33,0.81 -1.83,1.53c-0.48,0.69 -1.19,1.2 -1.84,1.71c-0.71,0.56 -1.28,1.12 -2.08,1.5c-0.8,0.38 -1.41,0.96 -1.97,1.56c-0.51,0.54 -1.22,0.98 -1.74,1.56c-0.54,0.61 -0.4,1.63 -0.77,2.37c-0.36,0.73 -0.68,0.81 -0.35,-0.02c0.27,-0.69 1.86,-1.35 1.3,-1.98c-0.11,-0.13 -1.1,0.22 -1.7,0.85c-0.53,0.56 -0.47,1.46 -0.64,2.29l0.87,0.01l0.83,0.21" fill="#000000" id="svg_3" stroke="#000000"/>
  <path d="m1.92,467.45c0.17,0.79 -0.1,1.95 0.47,2.28c0.34,0.2 0.14,-1.25 0.84,-1.18c0.73,0.07 0.75,1.27 1.17,2.03c0.44,0.78 0.66,1.58 1.07,2.34c0.41,0.76 1.46,1.26 1.33,2.08c-0.07,0.46 -1.21,0.2 -1.38,-0.56c-0.15,-0.68 0.79,-0.33 1.47,0.17c0.69,0.5 1.35,0.9 2.06,1.37c0.72,0.48 1.43,1.03 2.05,1.66c0.59,0.6 1.24,1.15 1.94,1.61c0.71,0.47 1.22,1.08 1.22,1.96c0,0.68 -0.86,0.78 -1.51,0.27c-0.63,-0.49 0.41,-1.77 0.68,-0.93c0.09,0.29 -1.11,0.06 -1.85,-0.42c-0.74,-0.48 -1.01,-1.49 -0.29,-1.5c0.87,-0.02 1.54,0.61 2.32,0.99c0.85,0.41 2.01,1.62 2.31,0.94c0.35,-0.81 -1.49,-0.85 -2.19,-1.33c-0.76,-0.51 -1.35,-1.19 -2.02,-1.74c-0.7,-0.58 -1.27,-1.13 -1.99,-1.59c-0.74,-0.47 -1.45,-0.93 -2.33,-1.15c-0.52,-0.13 -0.73,0.87 -0.13,1.32c0.58,0.44 1.5,0.5 2.27,0.68c0.93,0.21 1.81,0.49 2.67,0.66c0.83,0.17 1.6,0.52 2.19,1.02c0.71,0.6 1.53,1.01 2.28,1.52c0.72,0.49 1.42,0.95 2.3,1.25c0.87,0.3 1.17,0.07 0.59,0.57c-0.52,0.45 -1,1.27 -0.85,1.92c0.16,0.71 2.08,0.45 1.97,1.33c-0.05,0.43 -1.34,-0.05 -1.87,-0.73c-0.47,-0.61 -0.78,-1.38 -1.05,-2.2c-0.26,-0.77 -0.69,-1.5 -0.94,-2.29l-0.29,-0.81" fill="#000000" id="svg_4" stroke="#000000"/>
  <path d="m747.55,460.45c0,1.03 -0.13,1.86 -0.46,2.61c-0.36,0.82 -0.6,1.6 -0.8,2.55c-0.16,0.8 -0.38,1.73 -0.49,2.57c-0.11,0.88 -0.03,1.77 -0.25,2.63c-0.22,0.86 -0.81,1.46 -1.3,2.1c-0.5,0.65 -1.12,1.06 -1.68,1.52c-0.61,0.5 -0.94,1.3 -1.39,1.92c-0.43,0.61 -1.03,1.15 -1.67,1.73c-0.59,0.54 0.06,0.44 0.47,-0.15c0.47,-0.68 0.8,-1.43 1.4,-2.05c0.58,-0.59 0.87,-1.57 1.63,-1.72c0.19,-0.04 -0.3,0.87 -0.86,1.48c-0.56,0.6 -1.17,1.14 -1.72,1.72c-0.54,0.56 -1.1,1.11 -1.78,1.49c-0.71,0.4 -1.19,0.93 -1.95,1.33c-0.68,0.36 -1.38,0.85 -1.57,1.07c-0.44,0.52 -1.32,0.78 -2.06,1.19c-0.7,0.38 -1.27,1.08 -2.11,1.43c-0.68,0.28 -1.57,0.39 -2.39,0.57c-0.83,0.18 -0.75,0.21 -0.07,-0.07c0.8,-0.33 1.5,-0.75 2.3,-0.96c0.81,-0.22 1.71,-0.34 2.55,-0.65c0.79,-0.29 1.63,-0.54 2.13,-1.12c0.43,-0.5 0.75,-1.18 1.26,-1.78c0.53,-0.61 1.3,-1 2,-1.52c0.65,-0.48 1.07,-1.31 1.8,-1.68c0.68,-0.35 0.62,0.6 0.15,1.29c-0.46,0.68 -1.37,1.01 -2.02,1.52c-0.68,0.53 -0.26,-0.06 0.14,-0.84c0.37,-0.72 1.09,-1.26 1.6,-2c0.5,-0.73 1.08,-1.37 1.5,-2.09c0.45,-0.79 0.67,-1.63 1.2,-2.31c0.52,-0.66 1.01,-1.33 1.4,-2.09c0.37,-0.7 0.78,-1.4 1.33,-2c0.52,-0.57 0.53,0.23 0.44,1.15c-0.09,0.86 -0.46,1.62 -0.89,2.25c-0.49,0.71 -0.81,0.45 -0.81,-0.43c0.01,-0.83 -0.42,-2.55 0.35,-2.51c0.85,0.05 0.23,1.83 -0.05,2.63c-0.29,0.82 -1.06,1.4 -1.63,1.99c-0.67,0.7 -1.26,1.2 -1.98,1.85c-0.7,0.63 -1.34,1.33 -1.95,1.78c-0.77,0.58 -1.51,0.95 -2.32,1.26c-0.78,0.31 -1.54,0.67 -2.37,0.98c-0.86,0.32 -2.06,1.25 -2.58,0.58c-0.24,-0.31 0.67,-0.93 0.98,-1.77l0.37,-0.79" fill="#000000" id="svg_5" stroke="#000000"/>
  <path d="m744.06,472.87c-0.06,0.86 -0.6,1.34 -1.05,1.92c-0.5,0.65 0.91,0.71 0.76,-0.18c-0.09,-0.54 -1.5,-0.12 -0.99,-0.32c0.68,-0.26 0.9,0.08 0.16,0.32c-0.81,0.27 0.85,0.61 0.67,-0.18c-0.15,-0.66 -1.56,0 -2.33,0.03l-0.95,0.18l-0.86,0.16l-0.77,0.09" fill="#000000" id="svg_6" stroke="#000000"/>
  <path d="m737.06,6.26c0.69,0.35 1.23,0.97 1.86,1.52c0.57,0.49 1.32,0.87 1.81,1.5c0.5,0.64 1.8,1.15 1.47,1.96c-0.16,0.38 -1.1,-0.4 -1.84,-0.85c-0.78,-0.47 -1.5,-0.95 -1.9,-1.69c-0.4,-0.72 -0.48,-1.64 -1.1,-2.23c-0.62,-0.59 -1.58,-0.75 -2.37,-1.09c-0.75,-0.33 -1.46,-0.8 -2.25,-1.18c-0.75,-0.36 -1.45,-1.02 -1.04,-1.08c0.81,-0.13 1.44,0.87 1.87,1.64c0.44,0.78 0.8,1.57 1.16,2.33c0.38,0.78 1.13,1.25 1.83,1.78l0.69,0.49l0.63,0.53" fill="none" id="svg_7" stroke="#000000"/>
  <path d="m737.24,6.43c0.7,0.18 1.32,0.62 1.73,1.43c0.2,0.4 -0.38,-0.22 -0.95,-0.82c-0.56,-0.6 0.09,-0.14 0.58,0.52c0.55,0.74 0.96,1.39 0.56,0.76c-0.46,-0.71 -1.02,-1.26 -1.65,-1.79c-0.46,-0.38 0.24,-0.05 0.83,0.49l0.47,0.64l0.62,0.62" fill="none" id="svg_8" stroke="#000000"/>
  <rect fill="#000000" height="436" id="svg_9" stroke="#000000" width="11.33" x="6" y="25.67"/>
  <rect fill="#000000" height="46" id="svg_10" stroke="#000000" width="14.67" x="3.33" y="423"/>
  <rect fill="#000000" height="14" id="svg_11" stroke="#000000" width="12" x="4.67" y="456.33"/>
  <rect fill="#000000" height="8" id="svg_13" stroke="#000000" width="20" x="8.67" y="469.67"/>
 </g>
</svg>